<svg width="117" height="154" viewBox="0 0 117 154" fill="none" xmlns="http://www.w3.org/2000/svg">
<path d="M54.6024 3.59942C54.8933 2.54471 55.4238 1.63344 56.1218 0.989452C56.8199 0.345467 57.6517 0 58.5042 0C59.3566 0 60.1884 0.345467 60.8865 0.989452C61.5845 1.63344 62.115 2.54471 62.4059 3.59942L66.374 17.8698C69.4821 29.0598 74.4085 39.222 80.8091 47.6468C87.2097 56.0716 94.9304 62.5559 103.432 66.6469L114.265 71.8699C115.067 72.2527 115.759 72.951 116.248 73.8698C116.738 74.7886 117 75.8834 117 77.0055C117 78.1275 116.738 79.2223 116.248 80.1411C115.759 81.06 115.067 81.7582 114.265 82.1411L103.432 87.364C94.9304 91.4551 87.2097 97.9393 80.8091 106.364C74.4085 114.789 69.4821 124.951 66.374 136.141L62.4059 150.401C62.115 151.455 61.5845 152.367 60.8865 153.011C60.1884 153.655 59.3566 154 58.5042 154C57.6517 154 56.8199 153.655 56.1218 153.011C55.4238 152.367 54.8933 151.455 54.6024 150.401L50.6343 136.141C47.5262 124.951 42.5998 114.789 36.1992 106.364C29.7986 97.9393 22.0779 91.4551 13.5764 87.364L2.73462 82.1411C1.93332 81.7582 1.24099 81.06 0.751727 80.1411C0.262466 79.2223 0 78.1275 0 77.0055C0 75.8834 0.262466 74.7886 0.751727 73.8698C1.24099 72.951 1.93332 72.2527 2.73462 71.8699L13.5764 66.6469C22.0779 62.5559 29.7986 56.0716 36.1992 47.6468C42.5998 39.222 47.5262 29.0598 50.6343 17.8698L54.6024 3.59942Z" fill="#005695"/>
</svg>
