<svg width="150" height="55" viewBox="0 0 150 55" fill="none" xmlns="http://www.w3.org/2000/svg">
<path d="M14.3672 12.8789C13.6641 12.8789 13 12.7487 12.375 12.4883C11.763 12.2148 11.2292 11.8503 10.7734 11.3945C10.3177 10.9388 9.95312 10.4049 9.67969 9.79297C9.41927 9.16797 9.28906 8.50391 9.28906 7.80078C9.28906 7.09766 9.41927 6.4401 9.67969 5.82812C9.95312 5.20312 10.3177 4.66276 10.7734 4.20703C11.2292 3.73828 11.763 3.3737 12.375 3.11328C13 2.83984 13.6641 2.70312 14.3672 2.70312C15.0703 2.70312 15.7279 2.83984 16.3398 3.11328C16.9648 3.3737 17.5052 3.73828 17.9609 4.20703C18.4297 4.66276 18.7943 5.20312 19.0547 5.82812C19.3281 6.4401 19.4648 7.09766 19.4648 7.80078C19.4648 8.50391 19.3281 9.16797 19.0547 9.79297C18.7943 10.4049 18.4297 10.9388 17.9609 11.3945C17.5052 11.8503 16.9648 12.2148 16.3398 12.4883C15.7279 12.7487 15.0703 12.8789 14.3672 12.8789ZM5.24609 38.1523C5.08984 38.6992 5.01172 39.207 5.01172 39.6758C5.01172 40.1706 5.07031 40.6393 5.1875 41.082C5.31771 41.5378 5.5 41.9349 5.73438 42.2734C5.96875 42.612 6.2487 42.8789 6.57422 43.0742C6.91276 43.2826 7.29036 43.3867 7.70703 43.3867C8.26693 43.3867 8.72266 43.224 9.07422 42.8984C9.4388 42.5729 9.71875 42.1367 9.91406 41.5898C10.1224 41.043 10.2591 40.4049 10.3242 39.6758C10.4023 38.9596 10.4414 38.1979 10.4414 37.3906V20.3398L5.32422 15.9648L19.5625 15.3789V38.2891C19.5625 39.9167 19.2695 41.3164 18.6836 42.4883C18.1107 43.6602 17.3294 44.6172 16.3398 45.3594C15.3633 46.1146 14.224 46.668 12.9219 47.0195C11.6328 47.3711 10.2656 47.5469 8.82031 47.5469C7.77865 47.5469 6.75 47.3971 5.73438 47.0977C4.71875 46.8112 3.80729 46.3815 3 45.8086C2.17969 45.2487 1.52214 44.5521 1.02734 43.7188C0.519531 42.8984 0.265625 41.9479 0.265625 40.8672C0.265625 40.737 0.265625 40.6133 0.265625 40.4961C0.265625 40.3789 0.278646 40.2487 0.304688 40.1055L5.24609 38.1523ZM35.0312 12.8789C34.3281 12.8789 33.6641 12.7487 33.0391 12.4883C32.4271 12.2148 31.8932 11.8503 31.4375 11.3945C30.9818 10.9388 30.6172 10.4049 30.3438 9.79297C30.0833 9.16797 29.9531 8.50391 29.9531 7.80078C29.9531 7.09766 30.0833 6.4401 30.3438 5.82812C30.6172 5.20312 30.9818 4.66276 31.4375 4.20703C31.8932 3.73828 32.4271 3.3737 33.0391 3.11328C33.6641 2.83984 34.3281 2.70312 35.0312 2.70312C35.7344 2.70312 36.3919 2.83984 37.0039 3.11328C37.6289 3.3737 38.1693 3.73828 38.625 4.20703C39.0938 4.66276 39.4583 5.20312 39.7188 5.82812C39.9922 6.4401 40.1289 7.09766 40.1289 7.80078C40.1289 8.50391 39.9922 9.16797 39.7188 9.79297C39.4583 10.4049 39.0938 10.9388 38.625 11.3945C38.1693 11.8503 37.6289 12.2148 37.0039 12.4883C36.3919 12.7487 35.7344 12.8789 35.0312 12.8789ZM25.9102 38.1523C25.7539 38.6992 25.6758 39.207 25.6758 39.6758C25.6758 40.1706 25.7344 40.6393 25.8516 41.082C25.9818 41.5378 26.1641 41.9349 26.3984 42.2734C26.6328 42.612 26.9128 42.8789 27.2383 43.0742C27.5768 43.2826 27.9544 43.3867 28.3711 43.3867C28.931 43.3867 29.3867 43.224 29.7383 42.8984C30.1029 42.5729 30.3828 42.1367 30.5781 41.5898C30.7865 41.043 30.9232 40.4049 30.9883 39.6758C31.0664 38.9596 31.1055 38.1979 31.1055 37.3906V20.3398L25.9883 15.9648L40.2266 15.3789V38.2891C40.2266 39.9167 39.9336 41.3164 39.3477 42.4883C38.7747 43.6602 37.9935 44.6172 37.0039 45.3594C36.0273 46.1146 34.888 46.668 33.5859 47.0195C32.2969 47.3711 30.9297 47.5469 29.4844 47.5469C28.4427 47.5469 27.4141 47.3971 26.3984 47.0977C25.3828 46.8112 24.4714 46.3815 23.6641 45.8086C22.8438 45.2487 22.1862 44.5521 21.6914 43.7188C21.1836 42.8984 20.9297 41.9479 20.9297 40.8672C20.9297 40.737 20.9297 40.6133 20.9297 40.4961C20.9297 40.3789 20.9427 40.2487 20.9688 40.1055L25.9102 38.1523ZM50.4023 32.2344V20.3398L45.2852 15.9648L59.7188 15.3789V19.5195C60.2266 18.7122 60.806 18.0026 61.457 17.3906C62.1211 16.7786 62.8242 16.2708 63.5664 15.8672C64.3216 15.4505 65.1029 15.138 65.9102 14.9297C66.7305 14.7214 67.5508 14.6172 68.3711 14.6172C69.4518 14.6172 70.3828 14.7995 71.1641 15.1641C71.9583 15.5286 72.6094 16.043 73.1172 16.707C73.625 17.3581 74.0026 18.1328 74.25 19.0312C74.4974 19.9297 74.6211 20.9062 74.6211 21.9609C74.6211 22.2995 74.6081 22.6445 74.582 22.9961C74.556 23.3477 74.5039 23.6927 74.4258 24.0312L67.2969 24.6758C67.349 24.4674 67.375 24.2721 67.375 24.0898C67.388 23.8945 67.3945 23.7057 67.3945 23.5234C67.3945 22.9896 67.3294 22.5013 67.1992 22.0586C67.082 21.6159 66.8997 21.2383 66.6523 20.9258C66.418 20.6003 66.112 20.3529 65.7344 20.1836C65.3698 20.0013 64.9401 19.9102 64.4453 19.9102C63.9245 19.9102 63.4492 20.0143 63.0195 20.2227C62.5898 20.431 62.1992 20.7109 61.8477 21.0625C61.4961 21.4141 61.1836 21.8242 60.9102 22.293C60.6497 22.7487 60.4284 23.2305 60.2461 23.7383C60.0768 24.2331 59.9466 24.7344 59.8555 25.2422C59.7643 25.75 59.7188 26.2253 59.7188 26.668V32.0391L66.5156 37H45.3047L50.4023 32.2344ZM76.75 26.1992C76.75 24.2331 77.1471 22.5273 77.9414 21.082C78.7487 19.6237 79.8685 18.4193 81.3008 17.4688C82.7331 16.5052 84.4323 15.7891 86.3984 15.3203C88.3646 14.8516 90.513 14.6172 92.8438 14.6172C95.1745 14.6172 97.3229 14.8516 99.2891 15.3203C101.255 15.7891 102.954 16.5052 104.387 17.4688C105.819 18.4193 106.932 19.6237 107.727 21.082C108.534 22.5273 108.938 24.2331 108.938 26.1992C108.938 28.2435 108.534 29.9948 107.727 31.4531C106.932 32.9115 105.819 34.1094 104.387 35.0469C102.954 35.9844 101.255 36.668 99.2891 37.0977C97.3229 37.5404 95.1745 37.7617 92.8438 37.7617C90.513 37.7617 88.3646 37.5404 86.3984 37.0977C84.4323 36.668 82.7331 35.9844 81.3008 35.0469C79.8685 34.1094 78.7487 32.9115 77.9414 31.4531C77.1471 29.9948 76.75 28.2435 76.75 26.1992ZM87.0234 26.1992C87.0234 27.3971 87.1732 28.4844 87.4727 29.4609C87.7852 30.4375 88.2018 31.2708 88.7227 31.9609C89.2565 32.638 89.875 33.1654 90.5781 33.543C91.2943 33.9076 92.0495 34.0898 92.8438 34.0898C93.638 34.0898 94.3867 33.9076 95.0898 33.543C95.806 33.1654 96.4245 32.638 96.9453 31.9609C97.4792 31.2708 97.8958 30.4375 98.1953 29.4609C98.5078 28.4844 98.6641 27.3971 98.6641 26.1992C98.6641 24.9883 98.5078 23.888 98.1953 22.8984C97.8958 21.9089 97.4792 21.0625 96.9453 20.3594C96.4245 19.6562 95.806 19.1094 95.0898 18.7188C94.3867 18.3281 93.638 18.1328 92.8438 18.1328C92.0495 18.1328 91.2943 18.3281 90.5781 18.7188C89.875 19.1094 89.2565 19.6562 88.7227 20.3594C88.2018 21.0625 87.7852 21.9089 87.4727 22.8984C87.1732 23.888 87.0234 24.9883 87.0234 26.1992ZM112.844 26.5117C112.844 24.9232 113.072 23.5234 113.527 22.3125C113.996 21.1016 114.621 20.0599 115.402 19.1875C116.197 18.3021 117.115 17.5664 118.156 16.9805C119.211 16.3945 120.331 15.9258 121.516 15.5742C122.701 15.2227 123.918 14.9753 125.168 14.832C126.431 14.6888 127.655 14.6172 128.84 14.6172C130.728 14.6172 132.486 14.8255 134.113 15.2422C135.754 15.6589 137.173 16.3294 138.371 17.2539C139.569 18.1784 140.507 19.3958 141.184 20.9062C141.874 22.4036 142.219 24.2331 142.219 26.3945H123.137C123.189 27.7487 123.417 28.8685 123.82 29.7539C124.237 30.6263 124.771 31.3229 125.422 31.8438C126.073 32.3516 126.815 32.7096 127.648 32.918C128.482 33.1263 129.341 33.2305 130.227 33.2305C131.021 33.2305 131.88 33.1849 132.805 33.0938C133.729 33.0026 134.654 32.8333 135.578 32.5859C136.503 32.3255 137.388 31.974 138.234 31.5312C139.081 31.0885 139.816 30.5091 140.441 29.793L142.434 31.3555C142.108 32.1497 141.652 32.8594 141.066 33.4844C140.48 34.1094 139.81 34.6628 139.055 35.1445C138.299 35.6133 137.479 36.0169 136.594 36.3555C135.721 36.681 134.823 36.9479 133.898 37.1562C132.974 37.3646 132.049 37.5143 131.125 37.6055C130.201 37.7096 129.315 37.7617 128.469 37.7617C126.086 37.7617 123.931 37.5143 122.004 37.0195C120.09 36.5247 118.449 35.8021 117.082 34.8516C115.728 33.888 114.68 32.7096 113.938 31.3164C113.208 29.9102 112.844 28.3086 112.844 26.5117ZM132.766 23.3477C132.766 22.3841 132.674 21.5768 132.492 20.9258C132.323 20.2617 132.062 19.7279 131.711 19.3242C131.359 18.9206 130.917 18.6341 130.383 18.4648C129.862 18.2826 129.25 18.1914 128.547 18.1914C127.062 18.1914 125.884 18.6406 125.012 19.5391C124.139 20.4375 123.566 21.707 123.293 23.3477H132.766Z" fill="#0C1111"/>
<path d="M92.6311 18.4822C92.662 18.3706 92.7182 18.2742 92.7923 18.206C92.8663 18.1379 92.9546 18.1013 93.045 18.1013C93.1354 18.1013 93.2237 18.1379 93.2977 18.206C93.3718 18.2742 93.428 18.3706 93.4589 18.4822L93.8798 19.9923C94.2095 21.1764 94.7321 22.2517 95.4111 23.1432C96.0901 24.0347 96.9091 24.7209 97.8109 25.1538L98.9602 25.7065C99.0452 25.747 99.1186 25.8208 99.1705 25.9181C99.2224 26.0153 99.2502 26.1312 99.2502 26.2499C99.2502 26.3686 99.2224 26.4845 99.1705 26.5817C99.1186 26.6789 99.0452 26.7528 98.9602 26.7933L97.8109 27.346C96.9091 27.7789 96.0901 28.4651 95.4111 29.3566C94.7321 30.2481 94.2095 31.3234 93.8798 32.5075L93.4589 34.0164C93.428 34.128 93.3718 34.2245 93.2977 34.2926C93.2237 34.3607 93.1354 34.3973 93.045 34.3973C92.9546 34.3973 92.8663 34.3607 92.7923 34.2926C92.7182 34.2245 92.662 34.128 92.6311 34.0164L92.2102 32.5075C91.8805 31.3234 91.3579 30.2481 90.6789 29.3566C89.9999 28.4651 89.1809 27.7789 88.2791 27.346L87.129 26.7933C87.044 26.7528 86.9705 26.6789 86.9186 26.5817C86.8667 26.4845 86.8389 26.3686 86.8389 26.2499C86.8389 26.1312 86.8667 26.0153 86.9186 25.9181C86.9705 25.8208 87.044 25.747 87.129 25.7065L88.2791 25.1538C89.1809 24.7209 89.9999 24.0347 90.6789 23.1432C91.3579 22.2517 91.8805 21.1764 92.2102 19.9923L92.6311 18.4822Z" fill="#0C1111"/>
</svg>
