<svg width="217" height="249" viewBox="0 0 217 249" fill="none" xmlns="http://www.w3.org/2000/svg">
<path d="M108.5 0C108.5 0 115.58 62.7392 139.188 89.2861C162.253 115.221 217 124.5 217 124.5C217 124.5 162.253 133.779 139.188 159.714C115.58 186.261 108.5 249 108.5 249C108.5 249 101.42 186.261 77.8116 159.714C54.7472 133.779 0 124.5 0 124.5C0 124.5 54.7472 115.221 77.8116 89.2861C101.42 62.7392 108.5 0 108.5 0Z" fill="#D44C8A"/>
<path d="M181 45C181 45 179.76 56.0864 175.626 60.7775C171.587 65.3603 162 67 162 67C162 67 171.587 68.6397 175.626 73.2225C179.76 77.9136 181 89 181 89C181 89 182.24 77.9136 186.374 73.2225C190.413 68.6397 200 67 200 67C200 67 190.413 65.3603 186.374 60.7775C182.24 56.0864 181 45 181 45Z" fill="#D44C8A"/>
<path d="M22.0625 99.75C22.9375 100 23.7292 100.177 24.4375 100.281C25.1667 100.385 25.9583 100.438 26.8125 100.438C27.8542 100.438 28.8438 100.375 29.7812 100.25C30.7396 100.104 31.5729 99.7812 32.2812 99.2812C32.9896 98.7604 33.5521 98 33.9688 97C34.3854 96 34.5938 94.6354 34.5938 92.9062V68.125L26.7188 60.1875H50.4375V94.1562C50.4375 96.4479 50.1354 98.4271 49.5312 100.094C48.9271 101.74 48.0208 103.104 46.8125 104.188C45.6042 105.25 44.1042 106.031 42.3125 106.531C40.5417 107.052 38.4792 107.312 36.125 107.312C34.4375 107.312 32.8438 107.208 31.3438 107C29.8646 106.812 28.5104 106.552 27.2812 106.219C26.0521 105.906 24.9792 105.531 24.0625 105.094C23.1458 104.677 22.4271 104.25 21.9062 103.812L22.0625 99.75ZM53.475 99.75C54.35 100 55.1417 100.177 55.85 100.281C56.5792 100.385 57.3708 100.438 58.225 100.438C59.2667 100.438 60.2563 100.375 61.1938 100.25C62.1521 100.104 62.9854 99.7812 63.6938 99.2812C64.4021 98.7604 64.9646 98 65.3813 97C65.7979 96 66.0063 94.6354 66.0063 92.9062V68.125L58.1313 60.1875H81.85V94.1562C81.85 96.4479 81.5479 98.4271 80.9438 100.094C80.3396 101.74 79.4333 103.104 78.225 104.188C77.0167 105.25 75.5167 106.031 73.725 106.531C71.9542 107.052 69.8917 107.312 67.5375 107.312C65.85 107.312 64.2563 107.208 62.7563 107C61.2771 106.812 59.9229 106.552 58.6938 106.219C57.4646 105.906 56.3917 105.531 55.475 105.094C54.5583 104.677 53.8396 104.25 53.3188 103.812L53.475 99.75ZM28.6562 177.062V148.125L18.9688 140.188C20.9271 140.167 22.9583 140.146 25.0625 140.125C27.1667 140.104 29.2604 140.094 31.3438 140.094C33.4271 140.073 35.4583 140.052 37.4375 140.031C39.4167 140.01 41.2708 140 43 140C44.75 139.979 46.3333 139.969 47.75 139.969C49.1667 139.969 50.3438 139.969 51.2812 139.969C53.2604 139.969 55.3333 140.01 57.5 140.094C59.6667 140.177 61.7917 140.365 63.875 140.656C65.9792 140.927 67.9688 141.344 69.8438 141.906C71.7396 142.448 73.3958 143.188 74.8125 144.125C76.25 145.042 77.3854 146.188 78.2188 147.562C79.0729 148.917 79.5 150.552 79.5 152.469C79.5 153.927 79.2396 155.24 78.7188 156.406C78.1979 157.573 77.4479 158.615 76.4688 159.531C75.5104 160.448 74.3438 161.25 72.9688 161.938C71.5938 162.625 70.0625 163.219 68.375 163.719C69.6875 163.906 70.9167 164.354 72.0625 165.062C73.2292 165.75 74.2396 166.625 75.0938 167.688C75.9479 168.75 76.6146 169.979 77.0938 171.375C77.5938 172.771 77.8438 174.271 77.8438 175.875V177.688L86.625 185H55.875L60.625 178.344V174.5C60.625 173.417 60.4688 172.427 60.1562 171.531C59.8438 170.615 59.4167 169.833 58.875 169.188C58.3333 168.521 57.6979 168.01 56.9688 167.656C56.2604 167.281 55.5104 167.094 54.7188 167.094H45.125V177.062L50.7812 185H18.9375L28.6562 177.062ZM49.6875 160.969C51.875 160.969 53.7812 160.875 55.4062 160.688C57.0312 160.5 58.375 160.146 59.4375 159.625C60.5208 159.104 61.3229 158.385 61.8438 157.469C62.3646 156.552 62.625 155.375 62.625 153.938C62.625 152.833 62.4375 151.885 62.0625 151.094C61.6875 150.302 61.1771 149.646 60.5312 149.125C59.8854 148.583 59.125 148.156 58.25 147.844C57.3958 147.51 56.4896 147.271 55.5312 147.125C54.5729 146.958 53.5938 146.854 52.5938 146.812C51.5938 146.75 50.625 146.719 49.6875 146.719H45.125V160.969H49.6875ZM82.725 162.594C82.725 159.719 83.1417 157.135 83.975 154.844C84.8292 152.552 85.975 150.531 87.4125 148.781C88.85 147.031 90.5375 145.542 92.475 144.312C94.4125 143.062 96.4646 142.052 98.6312 141.281C100.819 140.49 103.069 139.917 105.381 139.562C107.694 139.188 109.954 139 112.162 139C114.579 139 116.985 139.188 119.381 139.562C121.798 139.917 124.09 140.49 126.256 141.281C128.444 142.052 130.475 143.062 132.35 144.312C134.225 145.542 135.85 147.031 137.225 148.781C138.621 150.531 139.704 152.552 140.475 154.844C141.267 157.135 141.662 159.719 141.662 162.594C141.662 165.427 141.256 167.979 140.444 170.25C139.631 172.521 138.517 174.531 137.1 176.281C135.683 178.031 134.017 179.531 132.1 180.781C130.204 182.031 128.162 183.062 125.975 183.875C123.808 184.688 121.537 185.281 119.162 185.656C116.808 186.031 114.475 186.219 112.162 186.219C109.85 186.219 107.517 186.042 105.162 185.688C102.808 185.333 100.537 184.771 98.35 184C96.1833 183.229 94.1417 182.229 92.225 181C90.3292 179.771 88.6729 178.281 87.2562 176.531C85.8604 174.781 84.7562 172.76 83.9437 170.469C83.1312 168.156 82.725 165.531 82.725 162.594ZM101.1 162.594C101.1 165.052 101.371 167.333 101.912 169.438C102.454 171.521 103.215 173.333 104.194 174.875C105.173 176.417 106.34 177.625 107.694 178.5C109.048 179.375 110.537 179.812 112.162 179.812C113.787 179.812 115.277 179.365 116.631 178.469C117.985 177.573 119.152 176.354 120.131 174.812C121.131 173.271 121.902 171.458 122.444 169.375C123.006 167.271 123.287 165.01 123.287 162.594C123.287 160.156 123.027 157.875 122.506 155.75C121.985 153.604 121.235 151.75 120.256 150.188C119.298 148.604 118.131 147.365 116.756 146.469C115.381 145.552 113.85 145.094 112.162 145.094C110.537 145.094 109.048 145.552 107.694 146.469C106.34 147.365 105.173 148.604 104.194 150.188C103.215 151.75 102.454 153.604 101.912 155.75C101.371 157.875 101.1 160.156 101.1 162.594ZM147.794 177.062V148.125L139.012 140.188H195.794L195.169 155.688L182.7 147.344H164.262V157.688H183.075V164.562H164.262V177.844H182.7L195.481 170.219V185H139.012L147.794 177.062Z" fill="black"/>
</svg>
