<svg width="425" height="435" viewBox="0 0 425 435" fill="none" xmlns="http://www.w3.org/2000/svg">
<rect width="425" height="435" fill="#FF6464"/>
<path d="M223.121 155.648C238.884 148.614 259.481 143.641 274.899 143.641C288.706 143.641 302.514 145.46 315.17 149.705V289.18C302.514 284.935 288.706 283.116 274.899 283.116C259.481 283.116 238.884 288.088 223.121 295.123V155.648Z" fill="#F8FFDB"/>
<path d="M223.121 155.648C238.884 148.614 259.481 143.641 274.899 143.641C288.706 143.641 302.514 145.46 315.17 149.705V289.18C302.514 284.935 288.706 283.116 274.899 283.116C259.481 283.116 238.884 288.088 223.121 295.123V155.648Z" fill="#F8FFDB"/>
<path d="M223.121 155.648C238.884 148.614 259.481 143.641 274.899 143.641C288.706 143.641 302.514 145.46 315.17 149.705V289.18C302.514 284.935 288.706 283.116 274.899 283.116C259.481 283.116 238.884 288.088 223.121 295.123V155.648Z" fill="#F8FFDB"/>
<path d="M310.745 128.613C298.628 124.616 285.31 122.902 272.538 122.902C251.252 122.902 228.328 127.471 212.5 140.034C196.672 127.471 173.748 122.902 152.461 122.902C131.175 122.902 108.251 127.471 92.4229 140.034V307.355C92.4229 310.211 95.1519 313.066 97.881 313.066C98.9726 313.066 99.5184 312.495 100.61 312.495C115.347 305.071 136.633 299.932 152.461 299.932C173.748 299.932 196.672 304.5 212.5 317.063C227.237 307.355 253.981 299.932 272.538 299.932C290.55 299.932 309.107 303.358 324.39 311.924C325.482 312.495 326.027 312.495 327.119 312.495C329.848 312.495 332.577 309.64 332.577 306.784V140.034C326.027 134.895 318.932 131.468 310.745 128.613ZM114.255 282.8V151.455C126.263 147.458 139.362 145.745 152.461 145.745C167.089 145.745 186.629 150.428 201.584 157.052V288.396C186.629 281.772 167.089 277.089 152.461 277.089C139.362 277.089 126.263 278.802 114.255 282.8ZM310.745 282.8C298.737 278.802 285.638 277.089 272.538 277.089C257.911 277.089 238.371 281.772 223.416 288.396V157.052C238.371 150.313 257.911 145.745 272.538 145.745C285.638 145.745 298.737 147.458 310.745 151.455V282.8Z" fill="#94CA6A"/>
<path d="M201.584 157.052C186.629 150.428 167.089 145.745 152.461 145.745C139.362 145.745 126.263 147.458 114.255 151.455V282.8C126.263 278.802 139.362 277.089 152.461 277.089C167.089 277.089 186.629 281.772 201.584 288.396V157.052Z" fill="#F8FFDB"/>
<path d="M201.584 157.052C186.629 150.428 167.089 145.745 152.461 145.745C139.362 145.745 126.263 147.458 114.255 151.455V282.8C126.263 278.802 139.362 277.089 152.461 277.089C167.089 277.089 186.629 281.772 201.584 288.396V157.052Z" fill="#F8FFDB"/>
<path d="M201.584 157.052C186.629 150.428 167.089 145.745 152.461 145.745C139.362 145.745 126.263 147.458 114.255 151.455V282.8C126.263 278.802 139.362 277.089 152.461 277.089C167.089 277.089 186.629 281.772 201.584 288.396V157.052Z" fill="#F8FFDB"/>
<path d="M272.538 191.43C282.145 191.43 291.423 192.458 299.829 194.399V177.039C291.205 175.326 281.926 174.298 272.538 174.298C258.566 174.298 245.685 176.125 234.332 179.666V197.597C245.139 193.6 258.129 191.43 272.538 191.43ZM272.538 221.81C282.145 221.81 291.423 222.838 299.829 224.78V207.419C291.205 205.706 281.926 204.678 272.538 204.678C258.566 204.678 245.685 206.506 234.332 210.046V227.978C245.139 224.094 258.129 221.81 272.538 221.81ZM272.538 252.305C282.145 252.305 291.423 253.333 299.829 255.274V237.914C291.205 236.201 281.926 235.173 272.538 235.173C258.566 235.173 245.685 237 234.332 240.541V258.472C245.139 254.475 258.129 252.305 272.538 252.305V252.305Z" fill="#94CA6A"/>
</svg>
