<svg width="425" height="435" viewBox="0 0 425 435" fill="none" xmlns="http://www.w3.org/2000/svg">
<rect width="425" height="435" fill="#1E1E1E"/>
<rect width="1815" height="1150" transform="translate(-440 -345)" fill="white"/>
<rect width="425" height="435" fill="#3F4937"/>
<path d="M327.083 119.073L325.708 104.635L311.958 109.219C288.393 117.406 263.229 119.919 238.51 116.552C212.536 112.521 185.95 116.103 161.969 126.865C149.255 132.278 138.098 140.785 129.513 151.612C120.927 162.439 115.186 175.242 112.812 188.854C109.735 206.439 111.274 224.522 117.281 241.333C121.149 232.603 125.669 224.176 130.802 216.125C142.446 198.993 158.58 185.396 177.437 176.823C195.604 168.529 215.461 164.604 235.417 165.365C216.419 168.269 198.234 175.098 182.021 185.417C174.2 190.331 167.038 196.222 160.708 202.948C154.654 209.671 149.317 217.005 144.781 224.833C136.262 241.196 130.201 258.724 126.792 276.854C123.117 295.042 121.123 313.53 120.833 332.083H143.75C144.827 315.444 147.086 298.902 150.51 282.583C166.408 291.168 184.236 295.546 202.302 295.302C219.151 295.291 235.827 291.901 251.344 285.333C338.542 248.094 327.083 124.229 327.083 119.073Z" fill="#E4B870"/>
</svg>
